<?xml version="1.0" encoding="UTF-8" standalone="no"?>
<!DOCTYPE svg PUBLIC "-//W3C//DTD SVG 1.1//EN"
 "http://www.w3.org/Graphics/SVG/1.1/DTD/svg11.dtd">
<!-- Generated by graphviz version 2.40.1 (20161225.0304)
 -->
<!-- Title: %3 Pages: 1 -->
<svg width="1342pt" height="404pt"
 viewBox="0.00 0.00 1341.88 404.00" xmlns="http://www.w3.org/2000/svg" xmlns:xlink="http://www.w3.org/1999/xlink">
<g id="graph0" class="graph" transform="scale(1 1) rotate(0) translate(4 400)">
<title>%3</title>
<polygon fill="#ffffff" stroke="transparent" points="-4,4 -4,-400 1337.8765,-400 1337.8765,4 -4,4"/>
<!-- [root] aws_instance.secondserver -->
<g id="node1" class="node">
<title>[root] aws_instance.secondserver</title>
<polygon fill="none" stroke="#000000" points="167.3268,-252 -.109,-252 -.109,-216 167.3268,-216 167.3268,-252"/>
<text text-anchor="middle" x="83.6089" y="-229.8" font-family="Times,serif" font-size="14.00" fill="#000000">aws_instance.secondserver</text>
</g>
<!-- [root] aws_subnet.subnet2 -->
<g id="node4" class="node">
<title>[root] aws_subnet.subnet2</title>
<polygon fill="none" stroke="#000000" points="249.9854,-180 121.2324,-180 121.2324,-144 249.9854,-144 249.9854,-180"/>
<text text-anchor="middle" x="185.6089" y="-157.8" font-family="Times,serif" font-size="14.00" fill="#000000">aws_subnet.subnet2</text>
</g>
<!-- [root] aws_instance.secondserver&#45;&gt;[root] aws_subnet.subnet2 -->
<g id="edge1" class="edge">
<title>[root] aws_instance.secondserver&#45;&gt;[root] aws_subnet.subnet2</title>
<path fill="none" stroke="#000000" d="M109.3478,-215.8314C122.1526,-206.7927 137.7998,-195.7476 151.5808,-186.0198"/>
<polygon fill="#000000" stroke="#000000" points="153.7269,-188.7891 159.8782,-180.1628 149.6901,-183.0703 153.7269,-188.7891"/>
</g>
<!-- [root] data.aws_ami.ubuntu -->
<g id="node8" class="node">
<title>[root] data.aws_ami.ubuntu</title>
<polygon fill="none" stroke="#000000" points="155.0815,-108 20.1362,-108 20.1362,-72 155.0815,-72 155.0815,-108"/>
<text text-anchor="middle" x="87.6089" y="-85.8" font-family="Times,serif" font-size="14.00" fill="#000000">data.aws_ami.ubuntu</text>
</g>
<!-- [root] aws_instance.secondserver&#45;&gt;[root] data.aws_ami.ubuntu -->
<g id="edge2" class="edge">
<title>[root] aws_instance.secondserver&#45;&gt;[root] data.aws_ami.ubuntu</title>
<path fill="none" stroke="#000000" d="M84.1155,-215.7623C84.7977,-191.201 86.0187,-147.2474 86.8213,-118.3541"/>
<polygon fill="#000000" stroke="#000000" points="90.3273,-118.183 87.1064,-108.0896 83.33,-117.9885 90.3273,-118.183"/>
</g>
<!-- [root] aws_security_group.subnetsecurity -->
<g id="node2" class="node">
<title>[root] aws_security_group.subnetsecurity</title>
<polygon fill="none" stroke="#000000" points="398.23,-252 184.9878,-252 184.9878,-216 398.23,-216 398.23,-252"/>
<text text-anchor="middle" x="291.6089" y="-229.8" font-family="Times,serif" font-size="14.00" fill="#000000">aws_security_group.subnetsecurity</text>
</g>
<!-- [root] aws_vpc.environment&#45;example&#45;two -->
<g id="node5" class="node">
<title>[root] aws_vpc.environment&#45;example&#45;two</title>
<polygon fill="none" stroke="#000000" points="392.0991,-108 175.1187,-108 175.1187,-72 392.0991,-72 392.0991,-108"/>
<text text-anchor="middle" x="283.6089" y="-85.8" font-family="Times,serif" font-size="14.00" fill="#000000">aws_vpc.environment&#45;example&#45;two</text>
</g>
<!-- [root] aws_security_group.subnetsecurity&#45;&gt;[root] aws_vpc.environment&#45;example&#45;two -->
<g id="edge3" class="edge">
<title>[root] aws_security_group.subnetsecurity&#45;&gt;[root] aws_vpc.environment&#45;example&#45;two</title>
<path fill="none" stroke="#000000" d="M290.5957,-215.7623C289.2312,-191.201 286.7893,-147.2474 285.1841,-118.3541"/>
<polygon fill="#000000" stroke="#000000" points="288.6633,-117.88 284.6139,-108.0896 281.674,-118.2684 288.6633,-117.88"/>
</g>
<!-- [root] aws_subnet.subnet1 -->
<g id="node3" class="node">
<title>[root] aws_subnet.subnet1</title>
<polygon fill="none" stroke="#000000" points="544.9854,-252 416.2324,-252 416.2324,-216 544.9854,-216 544.9854,-252"/>
<text text-anchor="middle" x="480.6089" y="-229.8" font-family="Times,serif" font-size="14.00" fill="#000000">aws_subnet.subnet1</text>
</g>
<!-- [root] aws_subnet.subnet1&#45;&gt;[root] aws_vpc.environment&#45;example&#45;two -->
<g id="edge4" class="edge">
<title>[root] aws_subnet.subnet1&#45;&gt;[root] aws_vpc.environment&#45;example&#45;two</title>
<path fill="none" stroke="#000000" d="M455.6587,-215.7623C420.4293,-190.0108 356.0365,-142.942 316.803,-114.2637"/>
<polygon fill="#000000" stroke="#000000" points="318.4951,-111.1652 308.3565,-108.0896 314.3642,-116.8165 318.4951,-111.1652"/>
</g>
<!-- [root] aws_subnet.subnet2&#45;&gt;[root] aws_vpc.environment&#45;example&#45;two -->
<g id="edge5" class="edge">
<title>[root] aws_subnet.subnet2&#45;&gt;[root] aws_vpc.environment&#45;example&#45;two</title>
<path fill="none" stroke="#000000" d="M210.3384,-143.8314C222.525,-134.8779 237.3912,-123.9558 250.54,-114.2955"/>
<polygon fill="#000000" stroke="#000000" points="252.9007,-116.9042 258.8873,-108.1628 248.7561,-111.263 252.9007,-116.9042"/>
</g>
<!-- [root] provider.aws -->
<g id="node13" class="node">
<title>[root] provider.aws</title>
<polygon fill="none" stroke="#000000" points="185.6089,-36 107.0005,-18 185.6089,0 264.2172,-18 185.6089,-36"/>
<text text-anchor="middle" x="185.6089" y="-13.8" font-family="Times,serif" font-size="14.00" fill="#000000">provider.aws</text>
</g>
<!-- [root] aws_vpc.environment&#45;example&#45;two&#45;&gt;[root] provider.aws -->
<g id="edge6" class="edge">
<title>[root] aws_vpc.environment&#45;example&#45;two&#45;&gt;[root] provider.aws</title>
<path fill="none" stroke="#000000" d="M258.8793,-71.8314C244.7542,-61.4537 227.0292,-48.4313 212.5511,-37.7943"/>
<polygon fill="#000000" stroke="#000000" points="214.5846,-34.9452 204.4535,-31.845 210.4401,-40.5864 214.5846,-34.9452"/>
</g>
<!-- [root] azurerm_resource_group.azy_network -->
<g id="node6" class="node">
<title>[root] azurerm_resource_group.azy_network</title>
<polygon fill="none" stroke="#000000" points="819.3444,-180 587.8734,-180 587.8734,-144 819.3444,-144 819.3444,-180"/>
<text text-anchor="middle" x="703.6089" y="-157.8" font-family="Times,serif" font-size="14.00" fill="#000000">azurerm_resource_group.azy_network</text>
</g>
<!-- [root] provider.azurerm -->
<g id="node14" class="node">
<title>[root] provider.azurerm</title>
<polygon fill="none" stroke="#000000" points="703.6089,-108 603.4726,-90 703.6089,-72 803.7451,-90 703.6089,-108"/>
<text text-anchor="middle" x="703.6089" y="-85.8" font-family="Times,serif" font-size="14.00" fill="#000000">provider.azurerm</text>
</g>
<!-- [root] azurerm_resource_group.azy_network&#45;&gt;[root] provider.azurerm -->
<g id="edge7" class="edge">
<title>[root] azurerm_resource_group.azy_network&#45;&gt;[root] provider.azurerm</title>
<path fill="none" stroke="#000000" d="M703.6089,-143.8314C703.6089,-136.131 703.6089,-126.9743 703.6089,-118.4166"/>
<polygon fill="#000000" stroke="#000000" points="707.109,-118.4132 703.6089,-108.4133 700.109,-118.4133 707.109,-118.4132"/>
</g>
<!-- [root] azurerm_virtual_network.blue_virtual_network -->
<g id="node7" class="node">
<title>[root] azurerm_virtual_network.blue_virtual_network</title>
<polygon fill="none" stroke="#000000" points="844.9098,-252 562.3079,-252 562.3079,-216 844.9098,-216 844.9098,-252"/>
<text text-anchor="middle" x="703.6089" y="-229.8" font-family="Times,serif" font-size="14.00" fill="#000000">azurerm_virtual_network.blue_virtual_network</text>
</g>
<!-- [root] azurerm_virtual_network.blue_virtual_network&#45;&gt;[root] azurerm_resource_group.azy_network -->
<g id="edge8" class="edge">
<title>[root] azurerm_virtual_network.blue_virtual_network&#45;&gt;[root] azurerm_resource_group.azy_network</title>
<path fill="none" stroke="#000000" d="M703.6089,-215.8314C703.6089,-208.131 703.6089,-198.9743 703.6089,-190.4166"/>
<polygon fill="#000000" stroke="#000000" points="707.109,-190.4132 703.6089,-180.4133 700.109,-190.4133 707.109,-190.4132"/>
</g>
<!-- [root] data.aws_ami.ubuntu&#45;&gt;[root] provider.aws -->
<g id="edge9" class="edge">
<title>[root] data.aws_ami.ubuntu&#45;&gt;[root] provider.aws</title>
<path fill="none" stroke="#000000" d="M112.3384,-71.8314C126.4636,-61.4537 144.1885,-48.4313 158.6667,-37.7943"/>
<polygon fill="#000000" stroke="#000000" points="160.7777,-40.5864 166.7643,-31.845 156.6331,-34.9452 160.7777,-40.5864"/>
</g>
<!-- [root] google_compute_instance.firstserver -->
<g id="node9" class="node">
<title>[root] google_compute_instance.firstserver</title>
<polygon fill="none" stroke="#000000" points="1296.2752,-252 1074.9426,-252 1074.9426,-216 1296.2752,-216 1296.2752,-252"/>
<text text-anchor="middle" x="1185.6089" y="-229.8" font-family="Times,serif" font-size="14.00" fill="#000000">google_compute_instance.firstserver</text>
</g>
<!-- [root] google_compute_subnetwork.dev&#45;subnet -->
<g id="node11" class="node">
<title>[root] google_compute_subnetwork.dev&#45;subnet</title>
<polygon fill="none" stroke="#000000" points="1303.6718,-180 1057.546,-180 1057.546,-144 1303.6718,-144 1303.6718,-180"/>
<text text-anchor="middle" x="1180.6089" y="-157.8" font-family="Times,serif" font-size="14.00" fill="#000000">google_compute_subnetwork.dev&#45;subnet</text>
</g>
<!-- [root] google_compute_instance.firstserver&#45;&gt;[root] google_compute_subnetwork.dev&#45;subnet -->
<g id="edge10" class="edge">
<title>[root] google_compute_instance.firstserver&#45;&gt;[root] google_compute_subnetwork.dev&#45;subnet</title>
<path fill="none" stroke="#000000" d="M1184.3472,-215.8314C1183.8124,-208.131 1183.1765,-198.9743 1182.5823,-190.4166"/>
<polygon fill="#000000" stroke="#000000" points="1186.072,-190.1467 1181.8876,-180.4133 1179.0889,-190.6317 1186.072,-190.1467"/>
</g>
<!-- [root] google_compute_network.our_development_network -->
<g id="node10" class="node">
<title>[root] google_compute_network.our_development_network</title>
<polygon fill="none" stroke="#000000" points="1333.6444,-108 1017.5734,-108 1017.5734,-72 1333.6444,-72 1333.6444,-108"/>
<text text-anchor="middle" x="1175.6089" y="-85.8" font-family="Times,serif" font-size="14.00" fill="#000000">google_compute_network.our_development_network</text>
</g>
<!-- [root] provider.google -->
<g id="node15" class="node">
<title>[root] provider.google</title>
<polygon fill="none" stroke="#000000" points="1115.6089,-36 1022.3225,-18 1115.6089,0 1208.8953,-18 1115.6089,-36"/>
<text text-anchor="middle" x="1115.6089" y="-13.8" font-family="Times,serif" font-size="14.00" fill="#000000">provider.google</text>
</g>
<!-- [root] google_compute_network.our_development_network&#45;&gt;[root] provider.google -->
<g id="edge11" class="edge">
<title>[root] google_compute_network.our_development_network&#45;&gt;[root] provider.google</title>
<path fill="none" stroke="#000000" d="M1160.4684,-71.8314C1152.8743,-62.7185 1143.5807,-51.5661 1135.426,-41.7805"/>
<polygon fill="#000000" stroke="#000000" points="1137.9969,-39.3984 1128.9062,-33.9568 1132.6193,-43.8797 1137.9969,-39.3984"/>
</g>
<!-- [root] google_compute_subnetwork.dev&#45;subnet&#45;&gt;[root] google_compute_network.our_development_network -->
<g id="edge12" class="edge">
<title>[root] google_compute_subnetwork.dev&#45;subnet&#45;&gt;[root] google_compute_network.our_development_network</title>
<path fill="none" stroke="#000000" d="M1179.3472,-143.8314C1178.8124,-136.131 1178.1765,-126.9743 1177.5823,-118.4166"/>
<polygon fill="#000000" stroke="#000000" points="1181.072,-118.1467 1176.8876,-108.4133 1174.0889,-118.6317 1181.072,-118.1467"/>
</g>
<!-- [root] google_container_cluster.kubey -->
<g id="node12" class="node">
<title>[root] google_container_cluster.kubey</title>
<polygon fill="none" stroke="#000000" points="1057.0616,-252 862.1562,-252 862.1562,-216 1057.0616,-216 1057.0616,-252"/>
<text text-anchor="middle" x="959.6089" y="-229.8" font-family="Times,serif" font-size="14.00" fill="#000000">google_container_cluster.kubey</text>
</g>
<!-- [root] google_container_cluster.kubey&#45;&gt;[root] provider.google -->
<g id="edge13" class="edge">
<title>[root] google_container_cluster.kubey&#45;&gt;[root] provider.google</title>
<path fill="none" stroke="#000000" d="M960.5408,-215.7737C963.1043,-183.2801 972.7044,-114.7514 1008.6089,-72 1024.0432,-53.6224 1047.289,-40.8433 1068.1747,-32.3484"/>
<polygon fill="#000000" stroke="#000000" points="1069.487,-35.5937 1077.5682,-28.7421 1066.9781,-29.0588 1069.487,-35.5937"/>
</g>
<!-- [root] var.client_id -->
<g id="node16" class="node">
<title>[root] var.client_id</title>
<polygon fill="none" stroke="#000000" points="792.2065,-36 713.0113,-36 713.0113,0 798.2065,0 798.2065,-30 792.2065,-36"/>
<polyline fill="none" stroke="#000000" points="792.2065,-36 792.2065,-30 "/>
<polyline fill="none" stroke="#000000" points="798.2065,-30 792.2065,-30 "/>
<text text-anchor="middle" x="755.6089" y="-13.8" font-family="Times,serif" font-size="14.00" fill="#000000">var.client_id</text>
</g>
<!-- [root] provider.azurerm&#45;&gt;[root] var.client_id -->
<g id="edge24" class="edge">
<title>[root] provider.azurerm&#45;&gt;[root] var.client_id</title>
<path fill="none" stroke="#000000" d="M715.1494,-74.0209C721.3977,-65.3693 729.2798,-54.4557 736.4234,-44.5645"/>
<polygon fill="#000000" stroke="#000000" points="739.4338,-46.3741 742.4514,-36.2181 733.7591,-42.2756 739.4338,-46.3741"/>
</g>
<!-- [root] var.client_secret -->
<g id="node17" class="node">
<title>[root] var.client_secret</title>
<polygon fill="none" stroke="#000000" points="917.4581,-36 815.7597,-36 815.7597,0 923.4581,0 923.4581,-30 917.4581,-36"/>
<polyline fill="none" stroke="#000000" points="917.4581,-36 917.4581,-30 "/>
<polyline fill="none" stroke="#000000" points="923.4581,-30 917.4581,-30 "/>
<text text-anchor="middle" x="869.6089" y="-13.8" font-family="Times,serif" font-size="14.00" fill="#000000">var.client_secret</text>
</g>
<!-- [root] provider.azurerm&#45;&gt;[root] var.client_secret -->
<g id="edge25" class="edge">
<title>[root] provider.azurerm&#45;&gt;[root] var.client_secret</title>
<path fill="none" stroke="#000000" d="M733.2864,-77.1278C756.9976,-66.8434 790.7773,-52.192 818.7782,-40.0471"/>
<polygon fill="#000000" stroke="#000000" points="820.2482,-43.2246 828.0297,-36.0344 817.4627,-36.8026 820.2482,-43.2246"/>
</g>
<!-- [root] var.subscription_id -->
<g id="node18" class="node">
<title>[root] var.subscription_id</title>
<polygon fill="none" stroke="#000000" points="582.0503,-36 465.1675,-36 465.1675,0 588.0503,0 588.0503,-30 582.0503,-36"/>
<polyline fill="none" stroke="#000000" points="582.0503,-36 582.0503,-30 "/>
<polyline fill="none" stroke="#000000" points="588.0503,-30 582.0503,-30 "/>
<text text-anchor="middle" x="526.6089" y="-13.8" font-family="Times,serif" font-size="14.00" fill="#000000">var.subscription_id</text>
</g>
<!-- [root] provider.azurerm&#45;&gt;[root] var.subscription_id -->
<g id="edge26" class="edge">
<title>[root] provider.azurerm&#45;&gt;[root] var.subscription_id</title>
<path fill="none" stroke="#000000" d="M672.7778,-77.4586C647.3957,-67.1336 610.8039,-52.2488 580.5825,-39.9554"/>
<polygon fill="#000000" stroke="#000000" points="581.5982,-36.5901 571.0165,-36.0641 578.9606,-43.0742 581.5982,-36.5901"/>
</g>
<!-- [root] var.tenant_id -->
<g id="node19" class="node">
<title>[root] var.tenant_id</title>
<polygon fill="none" stroke="#000000" points="688.8164,-36 606.4014,-36 606.4014,0 694.8164,0 694.8164,-30 688.8164,-36"/>
<polyline fill="none" stroke="#000000" points="688.8164,-36 688.8164,-30 "/>
<polyline fill="none" stroke="#000000" points="694.8164,-30 688.8164,-30 "/>
<text text-anchor="middle" x="650.6089" y="-13.8" font-family="Times,serif" font-size="14.00" fill="#000000">var.tenant_id</text>
</g>
<!-- [root] provider.azurerm&#45;&gt;[root] var.tenant_id -->
<g id="edge27" class="edge">
<title>[root] provider.azurerm&#45;&gt;[root] var.tenant_id</title>
<path fill="none" stroke="#000000" d="M691.8465,-74.0209C685.4779,-65.3693 677.4443,-54.4557 670.1633,-44.5645"/>
<polygon fill="#000000" stroke="#000000" points="672.7663,-42.1966 664.0194,-36.2181 667.1289,-46.3463 672.7663,-42.1966"/>
</g>
<!-- [root] meta.count&#45;boundary (EachMode fixup) -->
<g id="node20" class="node">
<title>[root] meta.count&#45;boundary (EachMode fixup)</title>
<ellipse fill="none" stroke="#000000" cx="534.6089" cy="-306" rx="174.7874" ry="18"/>
<text text-anchor="middle" x="534.6089" y="-301.8" font-family="Times,serif" font-size="14.00" fill="#000000">[root] meta.count&#45;boundary (EachMode fixup)</text>
</g>
<!-- [root] meta.count&#45;boundary (EachMode fixup)&#45;&gt;[root] aws_instance.secondserver -->
<g id="edge14" class="edge">
<title>[root] meta.count&#45;boundary (EachMode fixup)&#45;&gt;[root] aws_instance.secondserver</title>
<path fill="none" stroke="#000000" d="M430.3388,-291.5497C361.1089,-281.664 267.9779,-267.8107 177.2264,-252.2475"/>
<polygon fill="#000000" stroke="#000000" points="177.7662,-248.789 167.317,-250.5395 176.5772,-255.6873 177.7662,-248.789"/>
</g>
<!-- [root] meta.count&#45;boundary (EachMode fixup)&#45;&gt;[root] aws_security_group.subnetsecurity -->
<g id="edge15" class="edge">
<title>[root] meta.count&#45;boundary (EachMode fixup)&#45;&gt;[root] aws_security_group.subnetsecurity</title>
<path fill="none" stroke="#000000" d="M477.0213,-288.937C442.7686,-278.7881 399.0421,-265.8321 362.6562,-255.0511"/>
<polygon fill="#000000" stroke="#000000" points="363.1845,-251.5572 352.6021,-252.0721 361.1958,-258.2688 363.1845,-251.5572"/>
</g>
<!-- [root] meta.count&#45;boundary (EachMode fixup)&#45;&gt;[root] aws_subnet.subnet1 -->
<g id="edge16" class="edge">
<title>[root] meta.count&#45;boundary (EachMode fixup)&#45;&gt;[root] aws_subnet.subnet1</title>
<path fill="none" stroke="#000000" d="M520.9824,-287.8314C514.7628,-279.5386 507.2767,-269.557 500.4489,-260.4533"/>
<polygon fill="#000000" stroke="#000000" points="503.2189,-258.3133 494.4188,-252.4133 497.6189,-262.5133 503.2189,-258.3133"/>
</g>
<!-- [root] meta.count&#45;boundary (EachMode fixup)&#45;&gt;[root] azurerm_virtual_network.blue_virtual_network -->
<g id="edge17" class="edge">
<title>[root] meta.count&#45;boundary (EachMode fixup)&#45;&gt;[root] azurerm_virtual_network.blue_virtual_network</title>
<path fill="none" stroke="#000000" d="M575.9509,-288.3868C598.8119,-278.6472 627.4338,-266.4533 651.7791,-256.0813"/>
<polygon fill="#000000" stroke="#000000" points="653.3966,-259.1967 661.2246,-252.0572 650.6529,-252.7568 653.3966,-259.1967"/>
</g>
<!-- [root] meta.count&#45;boundary (EachMode fixup)&#45;&gt;[root] google_compute_instance.firstserver -->
<g id="edge18" class="edge">
<title>[root] meta.count&#45;boundary (EachMode fixup)&#45;&gt;[root] google_compute_instance.firstserver</title>
<path fill="none" stroke="#000000" d="M660.5758,-293.5077C796.4159,-279.9889 1000.7989,-259.4961 1064.5856,-252.0496"/>
<polygon fill="#000000" stroke="#000000" points="1065.303,-255.4885 1074.8117,-250.8156 1064.4643,-248.5389 1065.303,-255.4885"/>
</g>
<!-- [root] meta.count&#45;boundary (EachMode fixup)&#45;&gt;[root] google_container_cluster.kubey -->
<g id="edge19" class="edge">
<title>[root] meta.count&#45;boundary (EachMode fixup)&#45;&gt;[root] google_container_cluster.kubey</title>
<path fill="none" stroke="#000000" d="M625.707,-290.5919C687.0226,-280.2181 769.9888,-266.1754 852.2531,-252.2295"/>
<polygon fill="#000000" stroke="#000000" points="853.0061,-255.6519 862.2804,-250.5295 851.836,-248.7503 853.0061,-255.6519"/>
</g>
<!-- [root] provider.aws (close) -->
<g id="node21" class="node">
<title>[root] provider.aws (close)</title>
<ellipse fill="none" stroke="#000000" cx="237.6089" cy="-306" rx="104.3276" ry="18"/>
<text text-anchor="middle" x="237.6089" y="-301.8" font-family="Times,serif" font-size="14.00" fill="#000000">[root] provider.aws (close)</text>
</g>
<!-- [root] provider.aws (close)&#45;&gt;[root] aws_instance.secondserver -->
<g id="edge20" class="edge">
<title>[root] provider.aws (close)&#45;&gt;[root] aws_instance.secondserver</title>
<path fill="none" stroke="#000000" d="M201.113,-288.937C180.3332,-279.2218 154.0517,-266.9343 131.6157,-256.4448"/>
<polygon fill="#000000" stroke="#000000" points="132.8043,-253.1368 122.2631,-252.0721 129.8395,-259.478 132.8043,-253.1368"/>
</g>
<!-- [root] provider.aws (close)&#45;&gt;[root] aws_security_group.subnetsecurity -->
<g id="edge21" class="edge">
<title>[root] provider.aws (close)&#45;&gt;[root] aws_security_group.subnetsecurity</title>
<path fill="none" stroke="#000000" d="M251.2354,-287.8314C257.4549,-279.5386 264.9411,-269.557 271.7689,-260.4533"/>
<polygon fill="#000000" stroke="#000000" points="274.5989,-262.5133 277.7989,-252.4133 268.9989,-258.3133 274.5989,-262.5133"/>
</g>
<!-- [root] provider.aws (close)&#45;&gt;[root] aws_subnet.subnet1 -->
<g id="edge22" class="edge">
<title>[root] provider.aws (close)&#45;&gt;[root] aws_subnet.subnet1</title>
<path fill="none" stroke="#000000" d="M290.3363,-290.3771C325.3174,-280.0123 371.6391,-266.2874 409.8191,-254.9748"/>
<polygon fill="#000000" stroke="#000000" points="411.252,-258.2007 419.8456,-252.0039 409.2633,-251.4891 411.252,-258.2007"/>
</g>
<!-- [root] provider.azurerm (close) -->
<g id="node22" class="node">
<title>[root] provider.azurerm (close)</title>
<ellipse fill="none" stroke="#000000" cx="846.6089" cy="-306" rx="119.2527" ry="18"/>
<text text-anchor="middle" x="846.6089" y="-301.8" font-family="Times,serif" font-size="14.00" fill="#000000">[root] provider.azurerm (close)</text>
</g>
<!-- [root] provider.azurerm (close)&#45;&gt;[root] azurerm_virtual_network.blue_virtual_network -->
<g id="edge23" class="edge">
<title>[root] provider.azurerm (close)&#45;&gt;[root] azurerm_virtual_network.blue_virtual_network</title>
<path fill="none" stroke="#000000" d="M812.3568,-288.7542C793.297,-279.1576 769.3378,-267.0943 748.7626,-256.7347"/>
<polygon fill="#000000" stroke="#000000" points="750.0827,-253.4809 739.577,-252.1098 746.9347,-259.7331 750.0827,-253.4809"/>
</g>
<!-- [root] provider.google (close) -->
<g id="node23" class="node">
<title>[root] provider.google (close)</title>
<ellipse fill="none" stroke="#000000" cx="1098.6089" cy="-306" rx="114.4592" ry="18"/>
<text text-anchor="middle" x="1098.6089" y="-301.8" font-family="Times,serif" font-size="14.00" fill="#000000">[root] provider.google (close)</text>
</g>
<!-- [root] provider.google (close)&#45;&gt;[root] google_compute_instance.firstserver -->
<g id="edge28" class="edge">
<title>[root] provider.google (close)&#45;&gt;[root] google_compute_instance.firstserver</title>
<path fill="none" stroke="#000000" d="M1120.1145,-288.2022C1130.9079,-279.2698 1144.1528,-268.3085 1155.9008,-258.586"/>
<polygon fill="#000000" stroke="#000000" points="1158.2739,-261.1652 1163.7464,-252.0931 1153.8109,-255.7724 1158.2739,-261.1652"/>
</g>
<!-- [root] provider.google (close)&#45;&gt;[root] google_container_cluster.kubey -->
<g id="edge29" class="edge">
<title>[root] provider.google (close)&#45;&gt;[root] google_container_cluster.kubey</title>
<path fill="none" stroke="#000000" d="M1065.3149,-288.7542C1046.7882,-279.1576 1023.4992,-267.0943 1003.4995,-256.7347"/>
<polygon fill="#000000" stroke="#000000" points="1005.0602,-253.6015 994.5709,-252.1098 1001.8406,-259.8171 1005.0602,-253.6015"/>
</g>
<!-- [root] root -->
<g id="node24" class="node">
<title>[root] root</title>
<ellipse fill="none" stroke="#000000" cx="690.6089" cy="-378" rx="46.8976" ry="18"/>
<text text-anchor="middle" x="690.6089" y="-373.8" font-family="Times,serif" font-size="14.00" fill="#000000">[root] root</text>
</g>
<!-- [root] root&#45;&gt;[root] meta.count&#45;boundary (EachMode fixup) -->
<g id="edge30" class="edge">
<title>[root] root&#45;&gt;[root] meta.count&#45;boundary (EachMode fixup)</title>
<path fill="none" stroke="#000000" d="M660.5305,-364.1177C638.2935,-353.8544 607.5723,-339.6754 582.0415,-327.892"/>
<polygon fill="#000000" stroke="#000000" points="583.4419,-324.6836 572.8956,-323.6708 580.5085,-331.0393 583.4419,-324.6836"/>
</g>
<!-- [root] root&#45;&gt;[root] provider.aws (close) -->
<g id="edge31" class="edge">
<title>[root] root&#45;&gt;[root] provider.aws (close)</title>
<path fill="none" stroke="#000000" d="M647.4026,-371.1443C582.8247,-360.896 457.2977,-340.9697 350.6089,-324 342.0563,-322.6396 333.1398,-321.2206 324.2312,-319.8024"/>
<polygon fill="#000000" stroke="#000000" points="324.6224,-316.3207 314.1964,-318.2046 323.5217,-323.2336 324.6224,-316.3207"/>
</g>
<!-- [root] root&#45;&gt;[root] provider.azurerm (close) -->
<g id="edge32" class="edge">
<title>[root] root&#45;&gt;[root] provider.azurerm (close)</title>
<path fill="none" stroke="#000000" d="M720.6873,-364.1177C743.2397,-353.7089 774.5187,-339.2724 800.2595,-327.392"/>
<polygon fill="#000000" stroke="#000000" points="801.8531,-330.5114 809.4659,-323.1429 798.9196,-324.1557 801.8531,-330.5114"/>
</g>
<!-- [root] root&#45;&gt;[root] provider.google (close) -->
<g id="edge33" class="edge">
<title>[root] root&#45;&gt;[root] provider.google (close)</title>
<path fill="none" stroke="#000000" d="M733.1174,-370.4985C798.8867,-358.8922 926.6456,-336.3465 1012.3121,-321.2289"/>
<polygon fill="#000000" stroke="#000000" points="1013.0437,-324.6539 1022.2833,-319.4692 1011.8271,-317.7604 1013.0437,-324.6539"/>
</g>
</g>
</svg>
